<?xml version="1.0" encoding="utf-8"?>
<!-- Generator: Adobe Illustrator 18.0.0, SVG Export Plug-In . SVG Version: 6.00 Build 0)  -->
<!DOCTYPE svg PUBLIC "-//W3C//DTD SVG 1.1//EN" "http://www.w3.org/Graphics/SVG/1.1/DTD/svg11.dtd">
<svg version="1.1"
	 id="svg2" xmlns:dc="http://purl.org/dc/elements/1.1/" xmlns:sodipodi="http://sodipodi.sourceforge.net/DTD/sodipodi-0.dtd" xmlns:cc="http://creativecommons.org/ns#" xmlns:inkscape="http://www.inkscape.org/namespaces/inkscape" xmlns:svg="http://www.w3.org/2000/svg" xmlns:rdf="http://www.w3.org/1999/02/22-rdf-syntax-ns#" sodipodi:docname="brand_logo.svg" inkscape:version="0.91 r13725"
	 xmlns="http://www.w3.org/2000/svg" xmlns:xlink="http://www.w3.org/1999/xlink" x="0px" y="0px" viewBox="0 0 512 512"
	 enable-background="new 0 0 512 512" xml:space="preserve">
<sodipodi:namedview  showguides="true" showborder="true" inkscape:cx="113.04789" showgrid="false" inkscape:zoom="1.1395821" units="px" pagecolor="#c8c8c8" inkscape:cy="214.69811" bordercolor="#666666" borderopacity="1.0" id="base" inkscape:window-maximized="1" inkscape:window-y="-8" inkscape:window-x="1592" inkscape:window-height="1017" inkscape:current-layer="layer1" inkscape:pageshadow="2" inkscape:pageopacity="1" inkscape:window-width="1920" inkscape:document-units="px" inkscape:guide-bbox="true">
	</sodipodi:namedview>
<path id="path3337" inkscape:connector-curvature="0" fill="#FFFFFF" d="M15.7,0C7.1,0,0.2,6.9,0.2,15.5v480.1
	c0,8.6,6.9,15.5,15.5,15.5H496c8.6,0,15.5-6.9,15.5-15.5V15.5C511.5,6.9,504.6,0,496,0L15.7,0L15.7,0z M490.3,22.2
	c2.3,2.6,3.7,6,3.7,9.7v447.3c0,8-6.4,14.4-14.5,14.4H32.1c-3.7,0-7.1-1.4-9.7-3.7l35.8-35.8h2.9h334.7v-65.7H218.2L392.7,214
	l-0.2-0.2l49.3-49.3l15.2-15.2V55.4L490.3,22.2L490.3,22.2z M58.7,118h65.7v177.6L299,121.1l46.1,46.1l-3.6,3.6l0,0L58.7,453.5v-0.8
	L58.7,118L58.7,118z"/>
<g id="layer3" transform="translate(0,-540.36219)" inkscape:label="Layer 3" inkscape:groupmode="layer">
</g>
<g id="layer2" transform="translate(0,-540.36219)" inkscape:label="Layer 2" inkscape:groupmode="layer">
</g>
</svg>
