<?xml version="1.0" encoding="UTF-8" standalone="no"?>
<!-- Created with Inkscape (http://www.inkscape.org/) -->

<svg
   xmlns:dc="http://purl.org/dc/elements/1.1/"
   xmlns:cc="http://creativecommons.org/ns#"
   xmlns:rdf="http://www.w3.org/1999/02/22-rdf-syntax-ns#"
   xmlns:svg="http://www.w3.org/2000/svg"
   xmlns="http://www.w3.org/2000/svg"
   xmlns:sodipodi="http://sodipodi.sourceforge.net/DTD/sodipodi-0.dtd"
   xmlns:inkscape="http://www.inkscape.org/namespaces/inkscape"
   width="512"
   height="512"
   viewBox="0 0 511.99999 511.99999"
   id="svg2"
   version="1.1"
   inkscape:version="0.91 r13725"
   sodipodi:docname="brand_logo.svg">
  <defs
     id="defs4" />
  <sodipodi:namedview
     id="base"
     pagecolor="#c8c8c8"
     bordercolor="#666666"
     borderopacity="1.0"
     inkscape:pageopacity="1"
     inkscape:pageshadow="2"
     inkscape:zoom="1.1395821"
     inkscape:cx="113.04789"
     inkscape:cy="214.69811"
     inkscape:document-units="px"
     inkscape:current-layer="layer1"
     showgrid="false"
     showborder="true"
     showguides="true"
     inkscape:guide-bbox="true"
     inkscape:window-width="1920"
     inkscape:window-height="1017"
     inkscape:window-x="1592"
     inkscape:window-y="-8"
     inkscape:window-maximized="1"
     units="px" />
  <metadata
     id="metadata7">
    <rdf:RDF>
      <cc:Work
         rdf:about="">
        <dc:format>image/svg+xml</dc:format>
        <dc:type
           rdf:resource="http://purl.org/dc/dcmitype/StillImage" />
        <dc:title></dc:title>
      </cc:Work>
    </rdf:RDF>
  </metadata>
  <g
     inkscape:label="Layer 1"
     inkscape:groupmode="layer"
     id="layer1"
     transform="translate(0,-540.36219)">
    <path
       style="fill:#ffffff"
       d="m 609.87884,1066.9772 c -41.55,0 -75,33.45 -75,75 l 0,2322.0586 c 0,41.55 33.45,75 75,75 l 2322.05666,0 c 41.55,0 75,-33.45 75,-75 l 0,-2322.0586 c 0,-41.55 -33.45,-75 -75,-75 l -2322.05666,0 z m 2294.66606,107.3575 c 11.198,12.3836 18.0039,28.8222 18.0039,46.9101 l 0,2163.5254 c 0,38.7133 -31.1657,69.8789 -69.8789,69.8789 l -2163.52536,0 c -18.0879,0 -34.5266,-6.8059 -46.9102,-18.0039 l 173.0781,-173.0781 13.9883,0 1618.25586,0 0,-317.6953 -858.7676,0 843.875,-843.875 -0.8027,-0.8028 238.3105,-238.3105 73.711,-73.711 0,-454.1757 160.6621,-160.6621 z m -2086.72076,463.5 317.69536,0 0,858.7675 843.875,-843.875 222.7773,222.7774 -17.375,17.373 0.1367,0.1641 -1367.10936,1367.1094 0,-4.0606 0,-1618.2558 z"
       id="rect4179"
       inkscape:connector-curvature="0" />
    <rect
       ry="70.933731"
       rx="70.933731"
       y="-44.675755"
       x="1280.7051"
       height="2338.031"
       width="2338.031"
       id="rect4181"
       style="fill:none" />
    <path
       inkscape:connector-curvature="0"
       id="path3337"
       d="m 15.718001,540.19754 c -8.5938686,0 -15.51239853,6.91853 -15.51239853,15.51239 l 0,480.27577 c 0,8.5941 6.91852993,15.5126 15.51239853,15.5126 l 480.275569,0 c 8.59386,0 15.51239,-6.9185 15.51239,-15.5126 l 0,-480.27577 c 0,-8.59386 -6.91853,-15.51239 -15.51239,-15.51239 l -480.275569,0 z M 490.32831,562.4025 c 2.3161,2.56133 3.72378,5.96136 3.72378,9.70252 l 0,447.48618 c 0,8.0071 -6.44607,14.4531 -14.45318,14.4531 l -447.486228,0 c -3.741156,0 -7.141205,-1.4076 -9.70253,-3.7237 l 35.798087,-35.79805 2.893227,0 334.707054,0 0,-65.70952 -177.62061,0 174.54034,-174.54035 -0.16602,-0.16605 49.29023,-49.29023 15.24579,-15.24579 0,-93.93804 33.23006,-33.23007 z m -431.600572,95.86661 65.709562,0 0,177.62061 174.54032,-174.54036 46.07748,46.07749 -3.5937,3.59329 0.0283,0.034 -282.761926,282.76194 0,-0.83989 0,-334.70703 z"
       style="fill:#f1e7e1;fill-opacity:1" />
  </g>
  <g
     inkscape:groupmode="layer"
     id="layer3"
     inkscape:label="Layer 3"
     transform="translate(0,-540.36219)" />
  <g
     inkscape:groupmode="layer"
     id="layer2"
     inkscape:label="Layer 2"
     transform="translate(0,-540.36219)" />
</svg>
