<?xml version="1.0" encoding="UTF-8" standalone="no"?>
<!-- Generator: Adobe Illustrator 18.0.0, SVG Export Plug-In . SVG Version: 6.00 Build 0)  -->

<svg
   xmlns:dc="http://purl.org/dc/elements/1.1/"
   xmlns:cc="http://creativecommons.org/ns#"
   xmlns:rdf="http://www.w3.org/1999/02/22-rdf-syntax-ns#"
   xmlns:svg="http://www.w3.org/2000/svg"
   xmlns="http://www.w3.org/2000/svg"
   xmlns:sodipodi="http://sodipodi.sourceforge.net/DTD/sodipodi-0.dtd"
   xmlns:inkscape="http://www.inkscape.org/namespaces/inkscape"
   version="1.1"
   id="Layer_1"
   x="0px"
   y="0px"
   viewBox="0 0 256 256"
   enable-background="new 0 0 256 256"
   xml:space="preserve"
   inkscape:version="0.91 r13725"
   sodipodi:docname="personal_logo_256x256.svg"><metadata
     id="metadata8"><rdf:RDF><cc:Work
         rdf:about=""><dc:format>image/svg+xml</dc:format><dc:type
           rdf:resource="http://purl.org/dc/dcmitype/StillImage" /><dc:title></dc:title></cc:Work></rdf:RDF></metadata><defs
     id="defs6" /><sodipodi:namedview
     pagecolor="#ffffff"
     bordercolor="#666666"
     borderopacity="1"
     objecttolerance="10"
     gridtolerance="10"
     guidetolerance="10"
     inkscape:pageopacity="0"
     inkscape:pageshadow="2"
     inkscape:window-width="971"
     inkscape:window-height="733"
     id="namedview4"
     showgrid="false"
     inkscape:zoom="0.9"
     inkscape:cx="1e+002"
     inkscape:cy="1e+002"
     inkscape:window-x="157"
     inkscape:window-y="87"
     inkscape:window-maximized="0"
     inkscape:current-layer="Layer_1" /><path
     id="path3337"
     inkscape:connector-curvature="0"
     d="M7.8,0C3.5,0,0.1,3.5,0.1,7.8v240.1c0,4.3,3.5,7.8,7.8,7.8  H248c4.3,0,7.8-3.4,7.8-7.8V7.8c0-4.3-3.4-7.8-7.8-7.8H7.8L7.8,0z M245.1,11.1c1.1,1.3,1.9,3,1.9,4.9v223.6c0,4-3.2,7.2-7.3,7.2H16  c-1.9,0-3.6-0.7-4.9-1.9L29.1,227h1.5h167.4v-32.9h-88.8l87.3-87.2l-0.1-0.1l24.6-24.7l7.6-7.6v-47L245.1,11.1L245.1,11.1z M29.4,59  h32.8v88.8l87.3-87.3l23.1,23l-1.8,1.8l0,0L29.4,226.8v-0.4V59L29.4,59z"
     fill="#F0F0F0" /></svg>